# xmcd
# 
# Track frame offsets:
#     150
#     32868
#     47933
#     60227
#     85866
#     115640
#     134064
#     153756
#     167719
# 
# Disc length: 2375
# 
# Revision: 5
# Processed by: cddbd v1.5.2PL0 Copyright (c) Steve Scherf et al.
# Submitted via: fre:ac v1.0.27
# 
DISCID=6e094509
DTITLE=Songs: Ohia - The Lioness
DYEAR=2000
DGENRE=Indie Rock, Folk Rock
TTITLE0=The Black Crow
TTITLE1=Tigress
TTITLE2=Nervous Bride
TTITLE3=Being In Love
TTITLE4=Lioness
TTITLE5=Coxcomb Red
TTITLE6=Back On Top
TTITLE7=Baby Take A Look
TTITLE8=Just A Spark
EXTD=CD 2000\nSecretly Canadian SC30 - 6 56605 00302 3\n4th Studio Album
EXTT0=
EXTT1=
EXTT2=
EXTT3=
EXTT4=
EXTT5=
EXTT6=
EXTT7=
EXTT8=
PLAYORDER=
